<?xml version="1.0" encoding="utf-8"?>
<!-- Generator: Adobe Illustrator 16.0.0, SVG Export Plug-In . SVG Version: 6.00 Build 0)  -->
<!DOCTYPE svg PUBLIC "-//W3C//DTD SVG 1.0//EN" "http://www.w3.org/TR/2001/REC-SVG-20010904/DTD/svg10.dtd">
<svg version="1.0" id="Layer_1" xmlns="http://www.w3.org/2000/svg" xmlns:xlink="http://www.w3.org/1999/xlink" x="0px" y="0px"
	 width="60px" height="60px" viewBox="0 0 60 60" enable-background="new 0 0 60 60" xml:space="preserve">
<g id="Layer_13">
	<path d="M30,57.5C14.836,57.5,2.5,45.163,2.5,30C2.5,14.836,14.836,2.5,30,2.5c15.163,0,27.5,12.336,27.5,27.5
		C57.5,45.163,45.163,57.5,30,57.5z M30,5.5C16.491,5.5,5.5,16.491,5.5,30c0,13.51,10.991,24.5,24.5,24.5
		c13.51,0,24.5-10.99,24.5-24.5C54.5,16.491,43.51,5.5,30,5.5z"/>
</g>
<g id="Layer_8">
	<path d="M55,28h-7.943C46.266,10.482,32.777,4.496,32.188,4.242L31.861,5H29l-0.591-1.379C27.812,3.877,14.024,10.007,13.524,28H5
		v3h8.547c0.881,19.161,14.273,25.127,14.862,25.379L29.002,55h2.323l0.86,2c0.596-0.255,14.262-6.352,14.881-26H55V28z M44.055,28
		H32V7.504C34.956,9.146,43.398,14.956,44.055,28z M29,6.667V28H16.523C16.958,13.844,26.482,7.972,29,6.667z M16.554,31H29v22.329
		C26.528,52.02,17.312,46.135,16.554,31z M32,53.729V31h12.066C43.561,45.844,34.986,52.021,32,53.729z"/>
</g>
</svg>
