<?xml version="1.0" encoding="UTF-8" standalone="no"?>
<!-- Generator: Adobe Illustrator 16.0.0, SVG Export Plug-In . SVG Version: 6.00 Build 0)  -->

<svg
   xmlns:dc="http://purl.org/dc/elements/1.1/"
   xmlns:cc="http://creativecommons.org/ns#"
   xmlns:rdf="http://www.w3.org/1999/02/22-rdf-syntax-ns#"
   xmlns:svg="http://www.w3.org/2000/svg"
   xmlns="http://www.w3.org/2000/svg"
   xmlns:sodipodi="http://sodipodi.sourceforge.net/DTD/sodipodi-0.dtd"
   xmlns:inkscape="http://www.inkscape.org/namespaces/inkscape"
   version="1.0"
   id="Layer_1"
   x="0px"
   y="0px"
   width="60px"
   height="60px"
   viewBox="0 0 60 60"
   enable-background="new 0 0 60 60"
   xml:space="preserve"
   inkscape:version="0.48.5 r"
   sodipodi:docname="IconeRSS.svg"><metadata
     id="metadata7316"><rdf:RDF><cc:Work
         rdf:about=""><dc:format>image/svg+xml</dc:format><dc:type
           rdf:resource="http://purl.org/dc/dcmitype/StillImage" /></cc:Work></rdf:RDF></metadata><defs
     id="defs7314" /><sodipodi:namedview
     pagecolor="#ffffff"
     bordercolor="#666666"
     borderopacity="1"
     objecttolerance="10"
     gridtolerance="10"
     guidetolerance="10"
     inkscape:pageopacity="0"
     inkscape:pageshadow="2"
     inkscape:window-width="640"
     inkscape:window-height="480"
     id="namedview7312"
     showgrid="false"
     inkscape:zoom="3.9333333"
     inkscape:cx="30"
     inkscape:cy="30"
     inkscape:window-x="0"
     inkscape:window-y="0"
     inkscape:window-maximized="0"
     inkscape:current-layer="Layer_1" /><g
     id="Layer_13"><path
       d="M30,57.5C14.836,57.5,2.5,45.163,2.5,30C2.5,14.836,14.836,2.5,30,2.5c15.163,0,27.5,12.336,27.5,27.5   C57.5,45.163,45.163,57.5,30,57.5z M30,5.5C16.491,5.5,5.5,16.491,5.5,30c0,13.51,10.991,24.5,24.5,24.5   c13.51,0,24.5-10.99,24.5-24.5C54.5,16.491,43.51,5.5,30,5.5z"
       id="path7307" /></g><g
     id="Layer_19"><path
       d="M 30.125,9 C 18.458,9 9,18.458 9,30.125 9,41.794 18.457,51.25 30.125,51.25 41.794,51.25 51.25,41.794 51.25,30.125 51.25,18.458 41.793,9 30.125,9 z m -6.552,30.656 c -1.534,0 -2.776,-1.244 -2.776,-2.778 0,-1.535 1.242,-2.776 2.776,-2.776 1.533,0 2.778,1.241 2.778,2.776 0,1.533 -1.245,2.778 -2.778,2.778 z m 6.968,0.018 c 0,-2.622 -1.013,-5.086 -2.856,-6.934 -1.838,-1.848 -4.282,-2.866 -6.886,-2.866 v -4.01 c 7.583,0 13.75,6.196 13.75,13.81 h -4.008 z m 7.084,0.004 c 0,-9.323 -7.546,-16.91 -16.82,-16.91 v -4.011 c 11.483,0 20.83,9.386 20.83,20.921 h -4.01 z"
       id="path7310"
       inkscape:connector-curvature="0" /></g></svg>