<?xml version="1.0" encoding="utf-8"?>
<!-- Generator: Adobe Illustrator 16.0.0, SVG Export Plug-In . SVG Version: 6.00 Build 0)  -->
<!DOCTYPE svg PUBLIC "-//W3C//DTD SVG 1.0//EN" "http://www.w3.org/TR/2001/REC-SVG-20010904/DTD/svg10.dtd">
<svg version="1.0" id="Layer_1" xmlns="http://www.w3.org/2000/svg" xmlns:xlink="http://www.w3.org/1999/xlink" x="0px" y="0px"
	 width="60px" height="60px" viewBox="0 0 60 60" enable-background="new 0 0 60 60" xml:space="preserve">
<g id="Layer_13">
	<path d="M30,57.5C14.836,57.5,2.5,45.163,2.5,30C2.5,14.836,14.836,2.5,30,2.5c15.163,0,27.5,12.336,27.5,27.5
		C57.5,45.163,45.163,57.5,30,57.5z M30,5.5C16.491,5.5,5.5,16.491,5.5,30c0,13.51,10.991,24.5,24.5,24.5
		c13.51,0,24.5-10.99,24.5-24.5C54.5,16.491,43.51,5.5,30,5.5z"/>
</g>
<g id="Layer_12">
	<g>
		<path d="M38,32c4.137,0,7.5-3.364,7.5-7.5S42.137,17,38,17s-7.5,3.364-7.5,7.5S33.863,32,38,32z M38,20c2.48,0,4.5,2.019,4.5,4.5
			c0,0.77-0.213,1.485-0.555,2.119c-0.17-0.643-0.75-1.119-1.445-1.119c-0.828,0-1.5,0.671-1.5,1.5c0,0.696,0.477,1.276,1.119,1.445
			C39.484,28.788,38.771,29,38,29c-2.48,0-4.5-2.019-4.5-4.5S35.52,20,38,20z"/>
		<path d="M38.385,37.654c-3.808,0-5.076-2.539-5.076-2.539H29.5h-3.808c0,0-1.27,2.539-5.077,2.539
			c-3.807,0-7.615-5.077-7.615-5.077S16.923,45,22,45c7,0,7.5-4.809,7.5-4.809S30,45,37,45c5.077,0,9-12.423,9-12.423
			S42.191,37.654,38.385,37.654z"/>
	</g>
</g>
</svg>
