<?xml version="1.0" encoding="UTF-8" standalone="no"?>
<!-- Generator: Adobe Illustrator 16.0.0, SVG Export Plug-In . SVG Version: 6.00 Build 0)  -->

<svg
   xmlns:dc="http://purl.org/dc/elements/1.1/"
   xmlns:cc="http://creativecommons.org/ns#"
   xmlns:rdf="http://www.w3.org/1999/02/22-rdf-syntax-ns#"
   xmlns:svg="http://www.w3.org/2000/svg"
   xmlns="http://www.w3.org/2000/svg"
   xmlns:sodipodi="http://sodipodi.sourceforge.net/DTD/sodipodi-0.dtd"
   xmlns:inkscape="http://www.inkscape.org/namespaces/inkscape"
   version="1.0"
   id="Layer_1"
   x="0px"
   y="0px"
   width="60px"
   height="60px"
   viewBox="0 0 60 60"
   enable-background="new 0 0 60 60"
   xml:space="preserve"
   inkscape:version="0.48.5 r"
   sodipodi:docname="IconeInstagram.svg"><metadata
     id="metadata6924"><rdf:RDF><cc:Work
         rdf:about=""><dc:format>image/svg+xml</dc:format><dc:type
           rdf:resource="http://purl.org/dc/dcmitype/StillImage" /></cc:Work></rdf:RDF></metadata><defs
     id="defs6922" /><sodipodi:namedview
     pagecolor="#ffffff"
     bordercolor="#666666"
     borderopacity="1"
     objecttolerance="10"
     gridtolerance="10"
     guidetolerance="10"
     inkscape:pageopacity="0"
     inkscape:pageshadow="2"
     inkscape:window-width="640"
     inkscape:window-height="480"
     id="namedview6920"
     showgrid="false"
     inkscape:zoom="3.9333333"
     inkscape:cx="30"
     inkscape:cy="30"
     inkscape:window-x="0"
     inkscape:window-y="0"
     inkscape:window-maximized="0"
     inkscape:current-layer="Layer_1" /><g
     id="Layer_13"><path
       d="M30,57.5C14.836,57.5,2.5,45.163,2.5,30C2.5,14.836,14.836,2.5,30,2.5c15.163,0,27.5,12.336,27.5,27.5   C57.5,45.163,45.163,57.5,30,57.5z M30,5.5C16.491,5.5,5.5,16.491,5.5,30c0,13.51,10.991,24.5,24.5,24.5   c13.51,0,24.5-10.99,24.5-24.5C54.5,16.491,43.51,5.5,30,5.5z"
       id="path6907" /></g><g
     id="Layer_15"><g
       id="g6910"><polygon
         points="39.009,21.487 39.009,20.957 38.479,20.958 34.934,20.971 34.945,25.047 39.009,25.033 "
         id="polygon6912" /><path
         d="m 29.767,34.445 c 2.334,0 4.234,-1.898 4.234,-4.232 0,-0.921 -0.301,-1.774 -0.804,-2.47 -0.768,-1.065 -2.02,-1.765 -3.431,-1.765 -1.413,0 -2.663,0.7 -3.433,1.765 -0.502,0.695 -0.801,1.548 -0.801,2.47 0.001,2.334 1.9,4.232 4.235,4.232 z"
         id="path6914"
         inkscape:connector-curvature="0" /><path
         d="M 29.877,7.752 C 17.657,7.752 7.752,17.656 7.752,29.875 7.752,42.094 17.657,52 29.877,52 42.094,52 52,42.094 52,29.875 52,17.656 42.094,7.752 29.877,7.752 z m 11.916,19.992 v 9.848 c 0,2.563 -2.087,4.647 -4.648,4.647 H 22.387 c -2.563,0 -4.648,-2.085 -4.648,-4.647 v -9.848 -4.909 c 0,-2.564 2.085,-4.648 4.648,-4.648 h 14.757 c 2.562,0 4.647,2.084 4.647,4.648 l 0.002,4.909 0,0 z"
         id="path6916"
         inkscape:connector-curvature="0" /><path
         d="m 36.343,30.213 c 0,3.625 -2.948,6.577 -6.576,6.577 -3.628,0 -6.576,-2.951 -6.576,-6.577 0,-0.875 0.174,-1.706 0.483,-2.47 h -3.59 v 9.848 c 0,1.271 1.033,2.304 2.304,2.304 h 14.756 c 1.271,0 2.303,-1.033 2.303,-2.304 v -9.848 h -3.592 c 0.313,0.764 0.488,1.597 0.488,2.47 z"
         id="path6918"
         inkscape:connector-curvature="0" /></g></g></svg>