<?xml version="1.0" encoding="UTF-8" standalone="no"?>
<!-- Generator: Adobe Illustrator 16.0.0, SVG Export Plug-In . SVG Version: 6.00 Build 0)  -->

<svg
   xmlns:dc="http://purl.org/dc/elements/1.1/"
   xmlns:cc="http://creativecommons.org/ns#"
   xmlns:rdf="http://www.w3.org/1999/02/22-rdf-syntax-ns#"
   xmlns:svg="http://www.w3.org/2000/svg"
   xmlns="http://www.w3.org/2000/svg"
   xmlns:sodipodi="http://sodipodi.sourceforge.net/DTD/sodipodi-0.dtd"
   xmlns:inkscape="http://www.inkscape.org/namespaces/inkscape"
   version="1.0"
   id="Layer_1"
   x="0px"
   y="0px"
   width="60px"
   height="60px"
   viewBox="0 0 60 60"
   enable-background="new 0 0 60 60"
   xml:space="preserve"
   inkscape:version="0.48.5 r"
   sodipodi:docname="IconeYoutube.svg"><metadata
     id="metadata7392"><rdf:RDF><cc:Work
         rdf:about=""><dc:format>image/svg+xml</dc:format><dc:type
           rdf:resource="http://purl.org/dc/dcmitype/StillImage" /></cc:Work></rdf:RDF></metadata><defs
     id="defs7390" /><sodipodi:namedview
     pagecolor="#ffffff"
     bordercolor="#666666"
     borderopacity="1"
     objecttolerance="10"
     gridtolerance="10"
     guidetolerance="10"
     inkscape:pageopacity="0"
     inkscape:pageshadow="2"
     inkscape:window-width="640"
     inkscape:window-height="480"
     id="namedview7388"
     showgrid="false"
     inkscape:zoom="3.9333333"
     inkscape:cx="30"
     inkscape:cy="30"
     inkscape:window-x="0"
     inkscape:window-y="0"
     inkscape:window-maximized="0"
     inkscape:current-layer="Layer_1" /><g
     id="Layer_13"><path
       d="M30,57.5C14.836,57.5,2.5,45.163,2.5,30C2.5,14.836,14.836,2.5,30,2.5c15.163,0,27.5,12.336,27.5,27.5   C57.5,45.163,45.163,57.5,30,57.5z M30,5.5C16.491,5.5,5.5,16.491,5.5,30c0,13.51,10.991,24.5,24.5,24.5   c13.51,0,24.5-10.99,24.5-24.5C54.5,16.491,43.51,5.5,30,5.5z"
       id="path7371" /></g><g
     id="Layer_14"><g
       id="g7374"><polygon
         points="22.635,31.652 22.635,39.251 24.112,39.251 24.112,31.652 25.641,31.652 25.641,30.359 21.105,30.359 21.105,31.652 "
         id="polygon7376" /><path
         d="m 30.181,25.339 c 0.201,0 0.36,-0.053 0.479,-0.162 0.117,-0.113 0.177,-0.266 0.177,-0.458 v -3.938 c 0,-0.158 -0.06,-0.287 -0.183,-0.382 -0.12,-0.099 -0.276,-0.147 -0.473,-0.147 -0.179,0 -0.325,0.048 -0.439,0.147 -0.112,0.095 -0.167,0.225 -0.167,0.382 v 3.938 c 0,0.197 0.053,0.35 0.158,0.458 0.104,0.11 0.255,0.162 0.448,0.162 z"
         id="path7378"
         inkscape:connector-curvature="0" /><path
         d="m 33.439,32.611 c -0.203,0 -0.405,0.053 -0.604,0.156 -0.196,0.104 -0.385,0.258 -0.562,0.457 v -2.866 h -1.324 v 8.892 h 1.324 v -0.502 c 0.172,0.202 0.358,0.351 0.56,0.446 0.2,0.095 0.431,0.143 0.688,0.143 0.386,0 0.687,-0.123 0.889,-0.371 0.206,-0.25 0.311,-0.605 0.311,-1.068 v -3.641 c 0,-0.539 -0.109,-0.947 -0.33,-1.227 -0.219,-0.278 -0.536,-0.419 -0.952,-0.419 z m -0.071,5.106 c 0,0.211 -0.039,0.36 -0.114,0.452 -0.074,0.095 -0.191,0.14 -0.354,0.14 -0.11,0 -0.215,-0.024 -0.316,-0.07 -0.1,-0.045 -0.205,-0.125 -0.311,-0.231 V 33.92 c 0.09,-0.092 0.181,-0.159 0.271,-0.201 0.09,-0.045 0.185,-0.063 0.276,-0.063 0.178,0 0.313,0.056 0.41,0.168 0.092,0.116 0.138,0.282 0.138,0.507 v 3.386 z"
         id="path7380"
         inkscape:connector-curvature="0" /><path
         d="m 28.65,37.676 c -0.123,0.143 -0.258,0.258 -0.406,0.352 -0.147,0.092 -0.271,0.138 -0.365,0.138 -0.125,0 -0.213,-0.034 -0.27,-0.104 -0.053,-0.067 -0.082,-0.181 -0.082,-0.334 v -5.033 h -1.311 v 5.484 c 0,0.393 0.077,0.682 0.23,0.881 0.156,0.193 0.381,0.291 0.685,0.291 0.247,0 0.501,-0.066 0.763,-0.207 C 28.156,39 28.407,38.8 28.649,38.536 v 0.719 h 1.312 v -6.56 H 28.65 v 4.981 l 0,0 z"
         id="path7382"
         inkscape:connector-curvature="0" /><path
         d="M 30.125,8.75 C 18.458,8.75 9,18.208 9,29.875 9,41.543 18.458,51 30.125,51 41.792,51 51.25,41.543 51.25,29.875 51.25,18.208 41.791,8.75 30.125,8.75 z m 3.412,10.434 h 1.475 v 5.541 c 0,0.172 0.033,0.295 0.096,0.37 0.062,0.077 0.16,0.117 0.301,0.117 0.107,0 0.244,-0.052 0.412,-0.152 0.162,-0.104 0.316,-0.232 0.453,-0.392 v -5.484 h 1.479 v 7.227 h -1.479 v -0.798 c -0.27,0.293 -0.553,0.519 -0.85,0.671 -0.293,0.153 -0.578,0.232 -0.855,0.232 -0.342,0 -0.598,-0.109 -0.772,-0.325 -0.171,-0.213 -0.258,-0.534 -0.258,-0.968 l -0.002,-6.039 0,0 z m -5.481,1.651 c 0,-0.558 0.197,-1.003 0.594,-1.339 C 29.048,19.167 29.583,19 30.254,19 c 0.611,0 1.111,0.176 1.502,0.523 0.389,0.349 0.584,0.802 0.584,1.354 v 3.732 c 0,0.62 -0.191,1.104 -0.57,1.454 -0.386,0.35 -0.912,0.526 -1.583,0.526 -0.645,0 -1.162,-0.181 -1.55,-0.542 -0.387,-0.365 -0.582,-0.854 -0.582,-1.468 l 0.001,-3.744 0,0 z m -4.022,-4.22 1.079,3.914 h 0.105 l 1.027,-3.914 h 1.689 L 26,22.347 v 4.064 h -1.662 v -3.883 l -1.979,-5.913 h 1.675 z m 19.335,20.617 c 0,2.612 -2.119,4.733 -4.732,4.733 H 22.185 c -2.615,0 -4.735,-2.121 -4.735,-4.733 v -3.809 c 0,-2.615 2.12,-4.735 4.735,-4.735 h 16.452 c 2.613,0 4.732,2.12 4.732,4.735 v 3.809 z"
         id="path7384"
         inkscape:connector-curvature="0" /><path
         d="m 37.398,32.529 c -0.588,0 -1.063,0.178 -1.437,0.537 -0.37,0.356 -0.558,0.822 -0.558,1.388 v 2.95 c 0,0.632 0.171,1.128 0.509,1.486 0.337,0.359 0.799,0.541 1.387,0.541 0.654,0 1.144,-0.168 1.472,-0.508 0.332,-0.341 0.494,-0.848 0.494,-1.521 v -0.338 h -1.349 v 0.299 c 0,0.388 -0.046,0.637 -0.131,0.748 -0.085,0.113 -0.238,0.171 -0.456,0.171 -0.209,0 -0.355,-0.065 -0.443,-0.197 -0.087,-0.136 -0.128,-0.375 -0.128,-0.722 V 36.13 h 2.507 v -1.676 c 0,-0.62 -0.158,-1.097 -0.48,-1.431 -0.323,-0.328 -0.786,-0.494 -1.387,-0.494 z m 0.52,2.58 h -1.159 v -0.664 c 0,-0.273 0.042,-0.473 0.136,-0.588 0.092,-0.123 0.24,-0.182 0.449,-0.182 0.197,0 0.348,0.059 0.436,0.182 0.091,0.115 0.139,0.313 0.139,0.588 v 0.664 l -10e-4,0 z"
         id="path7386"
         inkscape:connector-curvature="0" /></g></g></svg>