<?xml version="1.0" encoding="utf-8"?>
<!-- Generator: Adobe Illustrator 16.0.0, SVG Export Plug-In . SVG Version: 6.00 Build 0)  -->
<!DOCTYPE svg PUBLIC "-//W3C//DTD SVG 1.0//EN" "http://www.w3.org/TR/2001/REC-SVG-20010904/DTD/svg10.dtd">
<svg version="1.0" id="Layer_1" xmlns="http://www.w3.org/2000/svg" xmlns:xlink="http://www.w3.org/1999/xlink" x="0px" y="0px"
	 width="60px" height="60px" viewBox="0 0 60 60" enable-background="new 0 0 60 60" xml:space="preserve">
<g id="Layer_13">
	<path d="M30,57.5C14.836,57.5,2.5,45.163,2.5,30C2.5,14.836,14.836,2.5,30,2.5c15.163,0,27.5,12.336,27.5,27.5
		C57.5,45.163,45.163,57.5,30,57.5z M30,5.5C16.491,5.5,5.5,16.491,5.5,30c0,13.51,10.991,24.5,24.5,24.5
		c13.51,0,24.5-10.99,24.5-24.5C54.5,16.491,43.51,5.5,30,5.5z"/>
</g>
<g id="Layer_4">
	<path d="M30,21.725V19h-3.5v-1.971C26.522,16.5,26.776,16.5,27,16.5h3.464c0.02,0.115,0.036,0.278,0.036,0.5v2
		c0,0.865,0.73,2.5,3.5,2.5h2c1.407,0,3.5-0.932,3.5-3.5v-2h-3v2c0,0.224,0,0.478-0.5,0.5h-2c-0.223,0-0.385-0.016-0.5-0.036V17
		c0-2.769-1.637-3.5-2.5-3.5h-4c-2.568,0-3.5,2.093-3.5,3.5v2H21v2.725c-5.944,1.926-10,7.431-10,13.775
		C11,43.495,17.505,50,25.5,50S40,43.495,40,35.5C40,29.156,35.943,23.652,30,21.725z M25.5,47C19.159,47,14,41.841,14,35.5
		c0-5.35,3.637-9.946,8.845-11.179L24,24.048V22h3v2.048l1.155,0.273C33.361,25.554,37,30.15,37,35.5C37,41.841,31.841,47,25.5,47z"
		/>
	<circle cx="21" cy="40" r="4"/>
	<rect x="41" y="15.5" width="4" height="1"/>
	<rect x="40.579" y="19.273" transform="matrix(-0.7894 -0.6138 0.6138 -0.7894 64.0557 61.5187)" width="4.002" height="0.999"/>
	<rect x="37.5" y="9" width="1" height="4"/>
	<rect x="41.086" y="10.586" transform="matrix(-0.7071 -0.7071 0.7071 -0.7071 62.0922 50.8908)" width="1" height="4"/>
	<rect x="32.586" y="11.914" transform="matrix(-0.707 -0.7072 0.7072 -0.707 50.2611 45.649)" width="4" height="1"/>
</g>
</svg>
