<?xml version="1.0" encoding="utf-8"?>
<!-- Generator: Adobe Illustrator 16.0.0, SVG Export Plug-In . SVG Version: 6.00 Build 0)  -->
<!DOCTYPE svg PUBLIC "-//W3C//DTD SVG 1.0//EN" "http://www.w3.org/TR/2001/REC-SVG-20010904/DTD/svg10.dtd">
<svg version="1.0" id="Layer_1" xmlns="http://www.w3.org/2000/svg" xmlns:xlink="http://www.w3.org/1999/xlink" x="0px" y="0px"
	 width="60px" height="60px" viewBox="0 0 60 60" enable-background="new 0 0 60 60" xml:space="preserve">
<g id="Layer_13">
	<path d="M30,57.5C14.836,57.5,2.5,45.163,2.5,30C2.5,14.836,14.836,2.5,30,2.5c15.163,0,27.5,12.336,27.5,27.5
		C57.5,45.163,45.163,57.5,30,57.5z M30,5.5C16.491,5.5,5.5,16.491,5.5,30c0,13.51,10.991,24.5,24.5,24.5
		c13.51,0,24.5-10.99,24.5-24.5C54.5,16.491,43.51,5.5,30,5.5z"/>
</g>
<g id="Layer_7">
	<g>
		<path d="M36.788,31.871l1.601-2.234l-2.606-0.867l0.831-2.618l-2.746-0.019l-0.02-2.747l-2.617,0.831l-0.868-2.607l-2.233,1.6
			L26.5,21l-1.629,2.211l-2.233-1.6l-0.867,2.607l-2.618-0.831l-0.019,2.747l-2.747,0.019l0.831,2.618l-2.607,0.867l1.6,2.234
			L14,33.5l2.211,1.629l-1.6,2.232l2.607,0.867l-0.831,2.619l2.747,0.018l0.019,2.746l2.618-0.83l0.867,2.607l2.233-1.601L26.5,46
			l1.629-2.211l2.233,1.6l0.867-2.606l2.619,0.831l0.019-2.747l2.745-0.019l-0.83-2.617l2.607-0.867l-1.602-2.233L39,33.5
			L36.788,31.871z M26.5,38c-2.485,0-4.5-2.016-4.5-4.5s2.015-4.5,4.5-4.5s4.5,2.016,4.5,4.5S28.985,38,26.5,38z"/>
		<polygon points="40,17.419 38.63,16.524 38.202,14.945 36.568,15.026 35.294,14 34.02,15.026 32.385,14.945 31.958,16.524 
			30.587,17.419 31.17,18.948 30.587,20.478 31.958,21.373 32.385,22.952 34.02,22.871 35.294,23.897 36.568,22.871 38.202,22.952 
			38.63,21.373 40,20.478 39.418,18.948 		"/>
	</g>
</g>
</svg>
