<?xml version="1.0" encoding="utf-8"?>
<!-- Generator: Adobe Illustrator 16.0.0, SVG Export Plug-In . SVG Version: 6.00 Build 0)  -->
<!DOCTYPE svg PUBLIC "-//W3C//DTD SVG 1.0//EN" "http://www.w3.org/TR/2001/REC-SVG-20010904/DTD/svg10.dtd">
<svg version="1.0" xmlns="http://www.w3.org/2000/svg" xmlns:xlink="http://www.w3.org/1999/xlink" x="0px" y="0px" width="60px"
	 height="60px" viewBox="0 0 60 60" enable-background="new 0 0 60 60" xml:space="preserve">
<g id="Layer_1" display="none">
	<path display="inline" fill="#881629" d="M30,2C14.537,2,2,14.536,2,30s12.536,28,28,28c15.464,0,28-12.536,28-28S45.464,2,30,2z
		 M30,53C17.298,53,7,42.702,7,30C7,17.297,17.298,7,30,7c12.703,0,23,10.297,23,23C53,42.702,42.703,53,30,53z"/>
</g>
<g id="Layer_13">
	<path d="M30,57.5C14.836,57.5,2.5,45.163,2.5,30C2.5,14.836,14.836,2.5,30,2.5c15.163,0,27.5,12.336,27.5,27.5
		C57.5,45.163,45.163,57.5,30,57.5z M30,5.5C16.491,5.5,5.5,16.491,5.5,30c0,13.51,10.991,24.5,24.5,24.5
		c13.51,0,24.5-10.99,24.5-24.5C54.5,16.491,43.51,5.5,30,5.5z"/>
</g>
<g id="Layer_2">
	<path d="M43,18.5h-1.051C41.695,15.977,39.591,14,37,14H22c-2.59,0-4.695,1.977-4.95,4.5H16v3h1.05C17.304,24.023,19.41,26,22,26
		h15c2.591,0,4.695-1.977,4.949-4.5H43c0.222,0,0.385,0.016,0.5,0.036V27c0,0.224,0,0.478-0.5,0.5H25c-2.568,0-3.5,2.093-3.5,3.5v3
		H20v14h6V34h-1.5l0-2.972C24.522,30.5,24.776,30.5,25,30.5h18c1.407,0,3.5-0.932,3.5-3.5v-6C46.5,20.135,45.769,18.5,43,18.5z"/>
</g>
<g id="Layer_3" display="none">
	<polygon display="inline" fill="#881629" points="40,24 40,44 20,44 20,16 35,16 38,13 17,13 17,47 43,47 43,21 	"/>
	<polygon display="inline" fill="#881629" points="32.979,23.314 32.271,24.021 32.979,24.728 33.686,24.021 35.1,24.021 45,14.121 
		42.879,12 32.979,21.899 	"/>
</g>
<g id="Layer_4" display="none">
	<path display="inline" fill="#881629" d="M25.5,50C17.505,50,11,43.495,11,35.5c0-6.344,4.056-11.849,10-13.775V19h9v2.725
		c5.944,1.927,10,7.431,10,13.775C40,43.495,33.495,50,25.5,50z M24,22v2.048l-1.155,0.273C17.637,25.554,14,30.15,14,35.5
		C14,41.841,19.159,47,25.5,47C31.841,47,37,41.841,37,35.5c0-5.35-3.638-9.946-8.845-11.179L27,24.048V22H24z"/>
	<path display="inline" fill="none" stroke="#881629" stroke-width="3" stroke-miterlimit="10" d="M25,20v-3c0,0,0-2,2-2s4,0,4,0
		s1,0,1,2s0,2,0,2s0,1,2,1s2,0,2,0s2,0,2-2s0-2,0-2"/>
	<circle display="inline" fill="#881629" cx="21" cy="40" r="4"/>
	<line display="inline" fill="none" stroke="#881629" stroke-miterlimit="10" x1="41" y1="16" x2="45" y2="16"/>
	<line display="inline" fill="none" stroke="#881629" stroke-miterlimit="10" x1="41" y1="18.544" x2="44.158" y2="21"/>
	<line display="inline" fill="none" stroke="#881629" stroke-miterlimit="10" x1="38" y1="13" x2="38" y2="9"/>
	<line display="inline" fill="none" stroke="#881629" stroke-miterlimit="10" x1="40.172" y1="14" x2="43" y2="11.172"/>
	<line display="inline" fill="none" stroke="#881629" stroke-miterlimit="10" x1="36" y1="13.828" x2="33.172" y2="11"/>
</g>
<g id="Layer_5" display="none">
	<path display="inline" fill="#881629" d="M23,23v1v5v7.495C22.25,36.181,21.401,36,20.5,36c-3.038,0-5.5,2.015-5.5,4.5
		s2.462,4.5,5.5,4.5c2.617,0,4.944-1.497,5.5-3.5l0,0V26.938l10-6.875v9.433C35.249,29.181,34.401,29,33.5,29
		c-3.037,0-5.5,2.015-5.5,4.5s2.463,4.5,5.5,4.5c2.83,0,5.16-1.75,5.464-4H39V18v-1.5V12L23,23z"/>
</g>
<g id="Layer_6" display="none">
	<path display="inline" fill="#881629" d="M40,28.5h-8.055c-0.53-0.911-1.4-1.588-2.445-1.858V13h-3v14.055
		c-1.19,0.693-2,1.968-2,3.445c0,2.21,1.791,4,4,4c1.861,0,3.412-1.277,3.858-3H40V28.5z"/>
</g>
<g id="Layer_7" display="none">
	<path display="inline" fill="#881629" d="M36.788,35.129L39,33.5l-2.212-1.629l1.601-2.234l-2.607-0.867l0.831-2.618l-2.746-0.019
		l-0.019-2.747l-2.618,0.831l-0.867-2.607l-2.233,1.6L26.5,21l-1.629,2.211l-2.233-1.6l-0.867,2.607l-2.618-0.831l-0.019,2.747
		l-2.747,0.019l0.831,2.618l-2.607,0.867l1.6,2.234L14,33.5l2.211,1.629l-1.6,2.233l2.607,0.867l-0.831,2.618l2.747,0.018
		l0.019,2.747l2.618-0.831l0.867,2.607l2.233-1.6L26.5,46l1.629-2.211l2.233,1.6l0.867-2.607l2.618,0.831l0.019-2.747l2.746-0.018
		l-0.831-2.618l2.607-0.867L36.788,35.129z M26.5,38c-2.485,0-4.5-2.015-4.5-4.5s2.015-4.5,4.5-4.5s4.5,2.015,4.5,4.5
		S28.985,38,26.5,38z"/>
	<polygon display="inline" fill="#881629" points="35.294,14 36.568,15.026 38.202,14.945 38.63,16.524 40,17.419 39.418,18.948 
		40,20.478 38.63,21.373 38.202,22.952 36.568,22.871 35.294,23.897 34.02,22.871 32.385,22.952 31.958,21.373 30.587,20.478 
		31.17,18.948 30.587,17.419 31.958,16.524 32.385,14.945 34.02,15.026 	"/>
</g>
<g id="Layer_8" display="none">
	<polygon display="inline" fill="#881629" points="55,28 32,28 32,6 29,6 29,28 6,28 6,31 29,31 29,55 32,55 32,31 55,31 	"/>
	<path display="inline" fill="#881629" d="M28.409,56.379C27.8,56.118,13.5,49.751,13.5,29c0-18.773,14.3-25.118,14.909-25.379
		l1.182,2.758L29,5l0.594,1.377C29.06,6.609,16.5,12.259,16.5,29c0,18.7,12.561,24.39,13.095,24.623L28.409,56.379z"/>
	<path display="inline" fill="#881629" d="M32.187,57c0.608-0.261,14.909-6.628,14.909-27.379c0-18.773-14.301-25.118-14.909-25.379
		L31.005,7l0.591-1.379l-0.594,1.377c0.534,0.232,13.094,5.881,13.094,22.623c0,18.7-12.561,24.39-13.096,24.623L32.187,57z"/>
</g>
<g id="Layer_9" display="none">
	<path display="inline" fill="#881629" d="M45.858,20.755c-1.671-2.704-4.411-4.255-7.517-4.255c-3.991,0-6.787,2.222-8.459,4.134
		C28.279,18.635,25.346,16,21,16c-3.105,0-5.845,1.551-7.517,4.255c-2.175,3.519-2.109,8.347,0.175,12.916
		c1.468,2.935,13.037,13.382,15.341,15.446L30,49.5l0.343-0.383c2.304-2.064,13.873-12.512,15.341-15.446
		C47.968,29.102,48.033,24.274,45.858,20.755z M43,32.329c-0.846,1.691-7.887,8.403-13.054,13.104
		c-5.202-4.709-12.729-11.852-13.604-13.604c-1.816-3.632-1.931-7.369-0.306-9.997C17.148,20.032,18.958,19,21,19
		c3.628,0,7.654,5.163,7.661,5.175L30,26.5l0.682-1.825c0.025-0.052,2.686-5.175,7.66-5.175c2.043,0,3.852,1.032,4.965,2.832
		C44.931,24.96,44.816,28.697,43,32.329z"/>
</g>
<g id="Layer_10" display="none">
	<g display="inline">
		<path fill="#881629" d="M36.344,16.383L16.383,36.344c-1.908,1.908-1.826,5.083,0.182,7.091c2.008,2.009,5.183,2.09,7.091,0.182
			l19.96-19.96c1.908-1.908,1.827-5.083-0.182-7.091C41.427,14.557,38.252,14.475,36.344,16.383z M39.892,23.253l-2.833,0.496
			l-0.687,3.919l-3.92,0.687l-0.687,3.919l-3.919,0.687l-0.687,3.92l-3.919,0.687l-0.497,2.833l-3.295-0.74l0.877-5.007l3.919-0.687
			l0.687-3.919l3.919-0.687l0.687-3.919l3.919-0.687l0.687-3.919l5.007-0.877L39.892,23.253z"/>
		<path fill="#881629" d="M24.202,18.828l-5.374,5.375c-2.84,2.84-3.687,6.94-2.601,10.682l18.658-18.658
			C31.143,15.142,27.042,15.988,24.202,18.828z"/>
		<path fill="#881629" d="M35.798,41.173l5.374-5.374c2.841-2.841,3.688-6.941,2.602-10.684L25.116,43.773
			C28.857,44.859,32.958,44.013,35.798,41.173z"/>
	</g>
</g>
<g id="Layer_11" display="none">
	<path display="inline" fill="#881629" d="M44,23h-2.5c0-6.617-5.159-12-11.5-12c-6.341,0-11.5,5.383-11.5,12H16
		c-2.761,0-5,2.239-5,5v10c0,2.762,2.239,5,5,5h28c2.762,0,5-2.238,5-5V28C49,25.239,46.762,23,44,23z M30,14
		c4.687,0,8.5,4.038,8.5,9h-17C21.5,18.038,25.313,14,30,14z M45,28H20v4h-2v-4h-3v-2h30V28z"/>
</g>
<g id="Layer_12" display="none">
	<path display="inline" fill="#881629" d="M38,17c-4.136,0-7.5,3.364-7.5,7.5S33.864,32,38,32s7.5-3.364,7.5-7.5S42.136,17,38,17z
		 M41.945,26.619c-0.17-0.643-0.75-1.119-1.445-1.119c-0.828,0-1.5,0.671-1.5,1.5c0,0.696,0.477,1.276,1.119,1.445
		C39.484,28.788,38.771,29,38,29c-2.481,0-4.5-2.019-4.5-4.5S35.519,20,38,20s4.5,2.019,4.5,4.5
		C42.5,25.27,42.287,25.985,41.945,26.619z"/>
	<path display="inline" fill="#881629" d="M38.385,37.654c-3.808,0-5.077-2.539-5.077-2.539H29.5h-3.808c0,0-1.27,2.539-5.077,2.539
		S13,32.577,13,32.577S16.923,45,22,45c7,0,7.5-4.808,7.5-4.808S30,45,37,45c5.077,0,9-12.423,9-12.423S42.192,37.654,38.385,37.654
		z"/>
</g>
</svg>
