<?xml version="1.0" encoding="utf-8"?>
<!-- Generator: Adobe Illustrator 16.0.0, SVG Export Plug-In . SVG Version: 6.00 Build 0)  -->
<!DOCTYPE svg PUBLIC "-//W3C//DTD SVG 1.0//EN" "http://www.w3.org/TR/2001/REC-SVG-20010904/DTD/svg10.dtd">
<svg version="1.0" id="Layer_1" xmlns="http://www.w3.org/2000/svg" xmlns:xlink="http://www.w3.org/1999/xlink" x="0px" y="0px"
	 width="60px" height="60px" viewBox="0 0 60 60" enable-background="new 0 0 60 60" xml:space="preserve">
<g id="Layer_13">
	<path d="M30,57.5C14.836,57.5,2.5,45.163,2.5,30C2.5,14.836,14.836,2.5,30,2.5c15.163,0,27.5,12.336,27.5,27.5
		C57.5,45.163,45.163,57.5,30,57.5z M30,5.5C16.491,5.5,5.5,16.491,5.5,30c0,13.51,10.991,24.5,24.5,24.5
		c13.51,0,24.5-10.99,24.5-24.5C54.5,16.491,43.51,5.5,30,5.5z"/>
</g>
<g id="Layer_10">
	<g>
		<path d="M36.344,16.383L16.383,36.344c-1.908,1.908-1.826,5.083,0.182,7.092c2.008,2.008,5.183,2.09,7.091,0.182l19.96-19.96
			c1.907-1.908,1.827-5.083-0.183-7.091C41.427,14.557,38.252,14.475,36.344,16.383z M39.893,23.253l-2.834,0.496l-0.687,3.919
			l-3.92,0.687l-0.687,3.918l-3.919,0.688l-0.687,3.92l-3.919,0.688L22.743,40.4l-3.295-0.739l0.877-5.007l3.919-0.688l0.687-3.919
			l3.919-0.687l0.687-3.919l3.919-0.687l0.687-3.919l5.008-0.877L39.893,23.253z"/>
		<path d="M24.202,18.828l-5.374,5.375c-2.84,2.84-3.687,6.939-2.601,10.682l18.658-18.658
			C31.143,15.142,27.042,15.988,24.202,18.828z"/>
		<path d="M35.798,41.173l5.374-5.374c2.842-2.841,3.688-6.941,2.602-10.684L25.116,43.773
			C28.857,44.859,32.958,44.014,35.798,41.173z"/>
	</g>
</g>
</svg>
