<?xml version="1.0" encoding="UTF-8" standalone="no"?>
<!-- Generator: Adobe Illustrator 16.0.0, SVG Export Plug-In . SVG Version: 6.00 Build 0)  -->

<svg
   xmlns:dc="http://purl.org/dc/elements/1.1/"
   xmlns:cc="http://creativecommons.org/ns#"
   xmlns:rdf="http://www.w3.org/1999/02/22-rdf-syntax-ns#"
   xmlns:svg="http://www.w3.org/2000/svg"
   xmlns="http://www.w3.org/2000/svg"
   xmlns:sodipodi="http://sodipodi.sourceforge.net/DTD/sodipodi-0.dtd"
   xmlns:inkscape="http://www.inkscape.org/namespaces/inkscape"
   version="1.0"
   id="Layer_1"
   x="0px"
   y="0px"
   width="60px"
   height="60px"
   viewBox="0 0 60 60"
   enable-background="new 0 0 60 60"
   xml:space="preserve"
   inkscape:version="0.48.5 r"
   sodipodi:docname="IconeTwitter.svg"><metadata
     id="metadata7342"><rdf:RDF><cc:Work
         rdf:about=""><dc:format>image/svg+xml</dc:format><dc:type
           rdf:resource="http://purl.org/dc/dcmitype/StillImage" /></cc:Work></rdf:RDF></metadata><defs
     id="defs7340" /><sodipodi:namedview
     pagecolor="#ffffff"
     bordercolor="#666666"
     borderopacity="1"
     objecttolerance="10"
     gridtolerance="10"
     guidetolerance="10"
     inkscape:pageopacity="0"
     inkscape:pageshadow="2"
     inkscape:window-width="640"
     inkscape:window-height="480"
     id="namedview7338"
     showgrid="false"
     inkscape:zoom="3.9333333"
     inkscape:cx="30"
     inkscape:cy="30"
     inkscape:window-x="0"
     inkscape:window-y="0"
     inkscape:window-maximized="0"
     inkscape:current-layer="Layer_1" /><g
     id="Layer_13"><path
       d="M30,57.5C14.836,57.5,2.5,45.163,2.5,30C2.5,14.836,14.836,2.5,30,2.5c15.163,0,27.5,12.336,27.5,27.5   C57.5,45.163,45.163,57.5,30,57.5z M30,5.5C16.491,5.5,5.5,16.491,5.5,30c0,13.51,10.991,24.5,24.5,24.5   c13.51,0,24.5-10.99,24.5-24.5C54.5,16.491,43.51,5.5,30,5.5z"
       id="path7333" /></g><g
     id="Layer_16"><path
       d="M 29.877,8.752 C 18.21,8.752 8.752,18.211 8.752,29.877 8.752,41.543 18.21,51 29.877,51 41.543,51 51,41.543 51,29.877 51,18.211 41.542,8.752 29.877,8.752 z m 10.641,16.865 c 0.012,0.228 0.018,0.458 0.018,0.689 0,7.036 -5.355,15.146 -15.147,15.146 -3.007,0 -5.805,-0.88 -8.161,-2.392 0.417,0.049 0.84,0.075 1.27,0.075 2.495,0 4.79,-0.853 6.611,-2.278 -2.329,-0.045 -4.295,-1.584 -4.972,-3.699 0.325,0.064 0.657,0.096 1.002,0.096 0.485,0 0.955,-0.063 1.403,-0.186 -2.437,-0.49 -4.271,-2.645 -4.271,-5.22 0,-0.022 0,-0.045 10e-4,-0.068 0.717,0.397 1.538,0.638 2.411,0.667 -1.43,-0.956 -2.368,-2.583 -2.368,-4.432 0,-0.975 0.262,-1.89 0.72,-2.676 2.625,3.221 6.548,5.341 10.974,5.562 -0.092,-0.389 -0.14,-0.796 -0.14,-1.213 0,-2.938 2.383,-5.323 5.323,-5.323 1.531,0 2.916,0.647 3.887,1.682 1.214,-0.239 2.354,-0.682 3.381,-1.293 -0.398,1.245 -1.242,2.287 -2.342,2.945 1.078,-0.128 2.104,-0.415 3.061,-0.838 -0.717,1.068 -1.62,2.006 -2.661,2.756 z"
       id="path7336"
       inkscape:connector-curvature="0" /></g></svg>