<?xml version="1.0" encoding="UTF-8" standalone="no"?>
<!-- Generator: Adobe Illustrator 16.0.0, SVG Export Plug-In . SVG Version: 6.00 Build 0)  -->

<svg
   xmlns:dc="http://purl.org/dc/elements/1.1/"
   xmlns:cc="http://creativecommons.org/ns#"
   xmlns:rdf="http://www.w3.org/1999/02/22-rdf-syntax-ns#"
   xmlns:svg="http://www.w3.org/2000/svg"
   xmlns="http://www.w3.org/2000/svg"
   xmlns:sodipodi="http://sodipodi.sourceforge.net/DTD/sodipodi-0.dtd"
   xmlns:inkscape="http://www.inkscape.org/namespaces/inkscape"
   version="1.0"
   id="Layer_1"
   x="0px"
   y="0px"
   width="60px"
   height="60px"
   viewBox="0 0 60 60"
   enable-background="new 0 0 60 60"
   xml:space="preserve"
   inkscape:version="0.48.5 r"
   sodipodi:docname="IconegooglePlus.svg"><metadata
     id="metadata6839"><rdf:RDF><cc:Work
         rdf:about=""><dc:format>image/svg+xml</dc:format><dc:type
           rdf:resource="http://purl.org/dc/dcmitype/StillImage" /></cc:Work></rdf:RDF></metadata><defs
     id="defs6837" /><sodipodi:namedview
     pagecolor="#ffffff"
     bordercolor="#666666"
     borderopacity="1"
     objecttolerance="10"
     gridtolerance="10"
     guidetolerance="10"
     inkscape:pageopacity="0"
     inkscape:pageshadow="2"
     inkscape:window-width="648"
     inkscape:window-height="480"
     id="namedview6835"
     showgrid="false"
     inkscape:zoom="3.9333333"
     inkscape:cx="61.271186"
     inkscape:cy="30"
     inkscape:window-x="0"
     inkscape:window-y="0"
     inkscape:window-maximized="0"
     inkscape:current-layer="Layer_1" /><g
     id="Layer_13"><path
       d="M30,57.5C14.836,57.5,2.5,45.163,2.5,30C2.5,14.836,14.836,2.5,30,2.5c15.163,0,27.5,12.336,27.5,27.5   C57.5,45.163,45.163,57.5,30,57.5z M30,5.5C16.491,5.5,5.5,16.491,5.5,30c0,13.51,10.991,24.5,24.5,24.5   c13.51,0,24.5-10.99,24.5-24.5C54.5,16.491,43.51,5.5,30,5.5z"
       id="path6824" /></g><g
     id="Layer_18"><g
       id="g6827"><path
         d="m 25.943,28.313 c 0.54,0 0.995,-0.212 1.346,-0.615 0.554,-0.628 0.796,-1.661 0.652,-2.758 -0.258,-1.962 -1.657,-3.591 -3.12,-3.635 h -0.058 c -0.519,0 -0.979,0.211 -1.332,0.613 -0.546,0.623 -0.774,1.606 -0.63,2.7 0.256,1.958 1.686,3.651 3.118,3.694 l 0.024,10e-4 0,0 z"
         id="path6829"
         inkscape:connector-curvature="0" /><path
         d="M 27.539,34.223 C 27.395,34.125 27.246,34.024 27.092,33.918 26.641,33.777 26.162,33.706 25.674,33.7 h -0.063 c -2.252,0 -4.228,1.364 -4.228,2.922 0,1.69 1.691,3.019 3.853,3.019 2.85,0 4.294,-0.982 4.294,-2.922 0,-0.184 -0.021,-0.374 -0.065,-0.563 -0.193,-0.754 -0.884,-1.224 -1.926,-1.933 z"
         id="path6831"
         inkscape:connector-curvature="0" /><path
         d="M 29.877,8.752 C 18.209,8.752 8.752,18.209 8.752,29.875 8.752,41.542 18.209,51 29.877,51 41.542,51 51,41.542 51,29.875 51,18.208 41.541,8.752 29.877,8.752 z M 27.954,41.37 c -0.842,0.241 -1.75,0.366 -2.705,0.366 -1.063,0 -2.085,-0.122 -3.037,-0.362 -1.844,-0.465 -3.208,-1.349 -3.843,-2.483 -0.275,-0.494 -0.414,-1.017 -0.414,-1.559 0,-0.561 0.134,-1.126 0.397,-1.688 1.012,-2.153 3.675,-3.601 6.625,-3.601 0.03,0 0.059,0 0.086,0 -0.24,-0.422 -0.357,-0.858 -0.357,-1.317 0,-0.23 0.03,-0.462 0.09,-0.7 -3.093,-0.072 -5.409,-2.337 -5.409,-5.325 0,-2.111 1.686,-4.165 4.097,-4.997 0.722,-0.25 1.457,-0.376 2.182,-0.376 h 6.617 c 0.226,0 0.424,0.146 0.494,0.36 0.072,0.216 -0.008,0.45 -0.189,0.583 l -1.48,1.071 c -0.088,0.063 -0.195,0.099 -0.306,0.099 h -0.529 c 0.685,0.819 1.084,1.987 1.084,3.301 0,1.451 -0.733,2.821 -2.066,3.866 -1.031,0.803 -1.073,1.021 -1.073,1.483 0.015,0.253 0.733,1.074 1.523,1.633 1.846,1.308 2.534,2.586 2.534,4.726 -0.004,2.227 -1.699,4.159 -4.321,4.92 z M 42.9,30.02 c 0,0.286 -0.235,0.518 -0.521,0.518 h -3.76 V 34.3 c 0,0.289 -0.232,0.521 -0.521,0.521 h -1.07 c -0.289,0 -0.521,-0.23 -0.521,-0.521 v -3.762 h -3.763 c -0.285,0 -0.519,-0.232 -0.519,-0.518 v -1.073 c 0,-0.287 0.232,-0.521 0.519,-0.521 h 3.762 v -3.76 c 0,-0.288 0.231,-0.52 0.521,-0.52 h 1.072 c 0.287,0 0.521,0.232 0.521,0.52 v 3.76 h 3.76 c 0.286,0 0.521,0.234 0.521,0.521 l -0.001,1.073 0,0 z"
         id="path6833"
         inkscape:connector-curvature="0" /></g></g></svg>