<?xml version="1.0" encoding="utf-8"?>
<!-- Generator: Adobe Illustrator 16.0.0, SVG Export Plug-In . SVG Version: 6.00 Build 0)  -->
<!DOCTYPE svg PUBLIC "-//W3C//DTD SVG 1.0//EN" "http://www.w3.org/TR/2001/REC-SVG-20010904/DTD/svg10.dtd">
<svg version="1.0" id="Layer_1" xmlns="http://www.w3.org/2000/svg" xmlns:xlink="http://www.w3.org/1999/xlink" x="0px" y="0px"
	 width="60px" height="60px" viewBox="0 0 60 60" enable-background="new 0 0 60 60" xml:space="preserve">
<g id="Layer_13">
	<path d="M30,57.5C14.836,57.5,2.5,45.163,2.5,30C2.5,14.836,14.836,2.5,30,2.5c15.163,0,27.5,12.336,27.5,27.5
		C57.5,45.163,45.163,57.5,30,57.5z M30,5.5C16.491,5.5,5.5,16.491,5.5,30c0,13.51,10.991,24.5,24.5,24.5
		c13.51,0,24.5-10.99,24.5-24.5C54.5,16.491,43.51,5.5,30,5.5z"/>
</g>
<g id="Layer_24">
	<g id="like">
		<path d="M44.164,23.472c-1.25-0.328-4.189-0.324-8.488-0.438c0.203-0.938,0.25-1.784,0.25-3.286C35.926,16.16,33.313,13,31,13
			c-1.633,0-2.979,1.335-3,2.977c-0.021,2.014-0.645,5.492-4,7.256c-0.246,0.13-0.95,0.477-1.053,0.522L23,23.8
			c-0.525-0.453-1.253-0.8-2-0.8h-3c-1.654,0-3,1.346-3,3v16c0,1.654,1.346,3,3,3h3c1.189,0,2.186-0.719,2.668-1.727
			c0.012,0.004,0.033,0.01,0.047,0.012c0.066,0.018,0.145,0.037,0.239,0.063c0.019,0.004,0.026,0.006,0.046,0.012
			c0.576,0.144,1.686,0.408,4.055,0.953C28.563,44.428,31.247,45,34.027,45h5.467c1.666,0,2.867-0.641,3.582-1.928
			c0.01-0.021,0.24-0.469,0.428-1.076c0.141-0.457,0.193-1.104,0.023-1.76c1.074-0.738,1.42-1.854,1.645-2.58
			c0.377-1.191,0.264-2.086,0.002-2.727c0.604-0.57,1.119-1.439,1.336-2.768c0.135-0.822-0.01-1.668-0.389-2.372
			c0.566-0.636,0.824-1.436,0.854-2.176l0.012-0.209c0.009-0.131,0.015-0.213,0.015-0.5C47,25.643,46.125,24.032,44.164,23.472z
			 M22,42c0,0.553-0.447,1-1,1h-3c-0.553,0-1-0.447-1-1V26c0-0.553,0.447-1,1-1h3c0.553,0,1,0.447,1,1V42z M44.977,27.535
			C44.957,28.029,44.75,29,43,29c-1.5,0-2,0-2,0c-0.277,0-0.5,0.225-0.5,0.5S40.723,30,41,30c0,0,0.438,0,1.938,0
			s1.697,1.244,1.602,1.844C44.414,32.59,44.064,34,42.375,34C40.688,34,40,34,40,34c-0.277,0-0.5,0.223-0.5,0.5
			c0,0.275,0.223,0.5,0.5,0.5c0,0,1.188,0,1.969,0c1.688,0,1.539,1.287,1.297,2.055C42.947,38.064,42.752,39,40.625,39
			c-0.719,0-1.631,0-1.631,0c-0.277,0-0.5,0.223-0.5,0.5c0,0.275,0.223,0.5,0.5,0.5c0,0,0.693,0,1.568,0
			c1.094,0,1.145,1.035,1.029,1.406c-0.125,0.406-0.271,0.707-0.277,0.721C41.012,42.672,40.525,43,39.494,43h-5.467
			c-2.746,0-5.471-0.623-5.542-0.639c-4.153-0.957-4.373-1.031-4.633-1.105c0,0-0.847-0.143-0.847-0.881L23,26.563
			c0-0.469,0.299-0.893,0.794-1.042c0.062-0.024,0.146-0.05,0.206-0.075c4.568-1.892,5.959-6.04,6-9.446c0.006-0.479,0.375-1,1-1
			c1.057,0,2.926,2.122,2.926,4.748c0,2.371-0.096,2.781-0.926,5.252c10,0,9.93,0.144,10.813,0.375
			C44.906,25.688,45,26.594,45,26.906C45,27.249,44.99,27.199,44.977,27.535z"/>
		<path d="M19.5,39c-0.828,0-1.5,0.672-1.5,1.5s0.672,1.5,1.5,1.5s1.5-0.672,1.5-1.5S20.328,39,19.5,39z M19.5,41
			c-0.275,0-0.5-0.225-0.5-0.5s0.225-0.5,0.5-0.5s0.5,0.225,0.5,0.5S19.775,41,19.5,41z"/>
	</g>
</g>
</svg>
