<?xml version="1.0" encoding="utf-8"?>
<!-- Generator: Adobe Illustrator 16.0.0, SVG Export Plug-In . SVG Version: 6.00 Build 0)  -->
<!DOCTYPE svg PUBLIC "-//W3C//DTD SVG 1.0//EN" "http://www.w3.org/TR/2001/REC-SVG-20010904/DTD/svg10.dtd">
<svg version="1.0" id="Layer_1" xmlns="http://www.w3.org/2000/svg" xmlns:xlink="http://www.w3.org/1999/xlink" x="0px" y="0px"
	 width="60px" height="60px" viewBox="0 0 60 60" enable-background="new 0 0 60 60" xml:space="preserve">
<g id="Layer_13">
	<path d="M30,57.5C14.836,57.5,2.5,45.163,2.5,30C2.5,14.836,14.836,2.5,30,2.5c15.163,0,27.5,12.336,27.5,27.5
		C57.5,45.163,45.163,57.5,30,57.5z M30,5.5C16.491,5.5,5.5,16.491,5.5,30c0,13.51,10.991,24.5,24.5,24.5
		c13.51,0,24.5-10.99,24.5-24.5C54.5,16.491,43.51,5.5,30,5.5z"/>
</g>
<g id="Layer_2">
	<path d="M43,18.5h-1.051C41.695,15.977,39.591,14,37,14H22c-2.59,0-4.695,1.977-4.95,4.5H16v3h1.05C17.304,24.023,19.41,26,22,26
		h15c2.591,0,4.695-1.977,4.949-4.5H43c0.223,0,0.385,0.016,0.5,0.036V27c0,0.224,0,0.478-0.5,0.5H25c-2.568,0-3.5,2.093-3.5,3.5v3
		H20v14h6V34h-1.5v-2.973C24.522,30.5,24.776,30.5,25,30.5h18c1.407,0,3.5-0.932,3.5-3.5v-6C46.5,20.135,45.77,18.5,43,18.5z"/>
</g>
</svg>
