<?xml version="1.0" encoding="utf-8"?>
<!-- Generator: Adobe Illustrator 16.0.0, SVG Export Plug-In . SVG Version: 6.00 Build 0)  -->
<!DOCTYPE svg PUBLIC "-//W3C//DTD SVG 1.0//EN" "http://www.w3.org/TR/2001/REC-SVG-20010904/DTD/svg10.dtd">
<svg version="1.0" id="Layer_1" xmlns="http://www.w3.org/2000/svg" xmlns:xlink="http://www.w3.org/1999/xlink" x="0px" y="0px"
	 width="60px" height="60px" viewBox="0 0 60 60" enable-background="new 0 0 60 60" xml:space="preserve">
<g id="Layer_13">
	<path d="M30,57.5C14.836,57.5,2.5,45.163,2.5,30C2.5,14.836,14.836,2.5,30,2.5c15.163,0,27.5,12.336,27.5,27.5
		C57.5,45.163,45.163,57.5,30,57.5z M30,5.5C16.491,5.5,5.5,16.491,5.5,30c0,13.51,10.991,24.5,24.5,24.5
		c13.51,0,24.5-10.99,24.5-24.5C54.5,16.491,43.51,5.5,30,5.5z"/>
</g>
<g id="Layer_9">
	<path d="M45.857,20.755c-1.67-2.704-4.41-4.255-7.517-4.255c-3.991,0-6.786,2.222-8.459,4.134C28.279,18.635,25.346,16,21,16
		c-3.105,0-5.845,1.551-7.517,4.255c-2.175,3.519-2.109,8.347,0.175,12.916c1.468,2.935,13.037,13.382,15.341,15.446L30,49.5
		l0.343-0.383c2.304-2.064,13.873-12.512,15.341-15.446C47.968,29.102,48.033,24.274,45.857,20.755z M43,32.329
		c-0.846,1.69-7.887,8.403-13.054,13.104c-5.202-4.709-12.729-11.853-13.604-13.604c-1.816-3.632-1.931-7.369-0.306-9.997
		C17.148,20.032,18.958,19,21,19c3.628,0,7.654,5.163,7.661,5.175L30,26.5l0.682-1.825c0.025-0.052,2.687-5.175,7.66-5.175
		c2.043,0,3.852,1.032,4.965,2.832C44.932,24.96,44.816,28.697,43,32.329z"/>
</g>
</svg>
