<?xml version="1.0" encoding="UTF-8" standalone="no"?>
<!-- Generator: Adobe Illustrator 16.0.0, SVG Export Plug-In . SVG Version: 6.00 Build 0)  -->

<svg
   xmlns:dc="http://purl.org/dc/elements/1.1/"
   xmlns:cc="http://creativecommons.org/ns#"
   xmlns:rdf="http://www.w3.org/1999/02/22-rdf-syntax-ns#"
   xmlns:svg="http://www.w3.org/2000/svg"
   xmlns="http://www.w3.org/2000/svg"
   xmlns:sodipodi="http://sodipodi.sourceforge.net/DTD/sodipodi-0.dtd"
   xmlns:inkscape="http://www.inkscape.org/namespaces/inkscape"
   version="1.0"
   id="Layer_1"
   x="0px"
   y="0px"
   width="60px"
   height="60px"
   viewBox="0 0 60 60"
   enable-background="new 0 0 60 60"
   xml:space="preserve"
   inkscape:version="0.48.5 r"
   sodipodi:docname="IconeLinkedin.svg"><metadata
     id="metadata6982"><rdf:RDF><cc:Work
         rdf:about=""><dc:format>image/svg+xml</dc:format><dc:type
           rdf:resource="http://purl.org/dc/dcmitype/StillImage" /></cc:Work></rdf:RDF></metadata><defs
     id="defs6980" /><sodipodi:namedview
     pagecolor="#ffffff"
     bordercolor="#666666"
     borderopacity="1"
     objecttolerance="10"
     gridtolerance="10"
     guidetolerance="10"
     inkscape:pageopacity="0"
     inkscape:pageshadow="2"
     inkscape:window-width="640"
     inkscape:window-height="480"
     id="namedview6978"
     showgrid="false"
     inkscape:zoom="3.9333333"
     inkscape:cx="30"
     inkscape:cy="30"
     inkscape:window-x="0"
     inkscape:window-y="0"
     inkscape:window-maximized="0"
     inkscape:current-layer="Layer_1" /><g
     id="Layer_13"><path
       d="M30,57.5C14.836,57.5,2.5,45.163,2.5,30C2.5,14.836,14.836,2.5,30,2.5c15.163,0,27.5,12.336,27.5,27.5   C57.5,45.163,45.163,57.5,30,57.5z M30,5.5C16.491,5.5,5.5,16.491,5.5,30c0,13.51,10.991,24.5,24.5,24.5   c13.51,0,24.5-10.99,24.5-24.5C54.5,16.491,43.51,5.5,30,5.5z"
       id="path6965" /></g><g
     id="Layer_20"><g
       id="g6968"><path
         d="M 30.125,9 C 18.458,9 9,18.458 9,30.125 9,41.793 18.458,51.25 30.125,51.25 41.79,51.25 51.248,41.793 51.248,30.125 51.248,18.459 41.789,9 30.125,9 z m 11.766,31.386 c 0,0.939 -0.781,1.7 -1.742,1.7 h -20.09 c -0.964,0 -1.743,-0.761 -1.743,-1.7 V 20.063 c 0,-0.938 0.779,-1.7 1.743,-1.7 h 20.087 c 0.963,0 1.744,0.762 1.744,1.7 v 20.323 l 10e-4,0 z"
         id="path6970"
         inkscape:connector-curvature="0" /><path
         d="m 34.201,27.261 c -1.889,0 -2.735,1.037 -3.208,1.768 v 0.035 h -0.022 c 0.008,-0.01 0.018,-0.022 0.022,-0.035 v -1.517 h -3.561 c 0.048,1.004 0,10.708 0,10.708 h 3.561 v -5.98 c 0,-0.321 0.024,-0.639 0.118,-0.868 0.258,-0.638 0.844,-1.304 1.826,-1.304 1.289,0 1.806,0.984 1.806,2.423 v 5.729 h 3.56 v -6.139 c -0.002,-3.29 -1.76,-4.82 -4.102,-4.82 z"
         id="path6972"
         inkscape:connector-curvature="0" /><path
         d="m 23.705,22.345 c -1.217,0 -2.015,0.802 -2.015,1.854 0,1.027 0.771,1.852 1.968,1.852 h 0.022 c 1.242,0 2.015,-0.825 2.015,-1.852 -0.023,-1.052 -0.772,-1.854 -1.99,-1.854 z"
         id="path6974"
         inkscape:connector-curvature="0" /><rect
         x="21.902"
         y="27.511999"
         width="3.5610001"
         height="10.708"
         id="rect6976" /></g></g></svg>