<?xml version="1.0" encoding="UTF-8" standalone="no"?>
<!-- Generator: Adobe Illustrator 16.0.0, SVG Export Plug-In . SVG Version: 6.00 Build 0)  -->

<svg
   xmlns:dc="http://purl.org/dc/elements/1.1/"
   xmlns:cc="http://creativecommons.org/ns#"
   xmlns:rdf="http://www.w3.org/1999/02/22-rdf-syntax-ns#"
   xmlns:svg="http://www.w3.org/2000/svg"
   xmlns="http://www.w3.org/2000/svg"
   xmlns:sodipodi="http://sodipodi.sourceforge.net/DTD/sodipodi-0.dtd"
   xmlns:inkscape="http://www.inkscape.org/namespaces/inkscape"
   version="1.0"
   id="Layer_1"
   x="0px"
   y="0px"
   width="60px"
   height="60px"
   viewBox="0 0 60 60"
   enable-background="new 0 0 60 60"
   xml:space="preserve"
   inkscape:version="0.48.5 r"
   sodipodi:docname="IconeComment.svg"><metadata
     id="metadata5709"><rdf:RDF><cc:Work
         rdf:about=""><dc:format>image/svg+xml</dc:format><dc:type
           rdf:resource="http://purl.org/dc/dcmitype/StillImage" /></cc:Work></rdf:RDF></metadata><defs
     id="defs5707" /><sodipodi:namedview
     pagecolor="#ffffff"
     bordercolor="#666666"
     borderopacity="1"
     objecttolerance="10"
     gridtolerance="10"
     guidetolerance="10"
     inkscape:pageopacity="0"
     inkscape:pageshadow="2"
     inkscape:window-width="713"
     inkscape:window-height="450"
     id="namedview5705"
     showgrid="false"
     inkscape:zoom="10.383333"
     inkscape:cx="41.990369"
     inkscape:cy="21.112059"
     inkscape:window-x="104"
     inkscape:window-y="104"
     inkscape:window-maximized="0"
     inkscape:current-layer="Layer_1" /><g
     id="Layer_13"><path
       d="M30,57.5C14.836,57.5,2.5,45.163,2.5,30C2.5,14.836,14.836,2.5,30,2.5c15.163,0,27.5,12.336,27.5,27.5   C57.5,45.163,45.163,57.5,30,57.5z M30,5.5C16.491,5.5,5.5,16.491,5.5,30c0,13.51,10.991,24.5,24.5,24.5   c13.51,0,24.5-10.99,24.5-24.5C54.5,16.491,43.51,5.5,30,5.5z"
       id="path5692" /></g><g
     id="Layer_23"><g
       id="g5695"><path
         d="M 36,14.5 H 24 c -7.444,0 -13.5,6.056 -13.5,13.5 0,4.826 2.516,9.186 6.632,11.609 L 16.125,49.672 25.32,41.5 H 36 C 43.443,41.5 49.5,35.443 49.5,28 49.5,20.556 43.443,14.5 36,14.5 z m 0,24 H 24.18 l -4.305,3.826 0.445,-4.447 -0.935,-0.46 C 15.755,35.637 13.5,32.027 13.5,28 13.5,22.21 18.21,17.5 24,17.5 h 12 c 5.79,0 10.5,4.71 10.5,10.5 0,5.79 -4.71,10.5 -10.5,10.5 z"
         id="path5697"
         inkscape:connector-curvature="0" /><circle
         cx="23"
         cy="28"
         r="2"
         id="circle5699"
         sodipodi:cx="23"
         sodipodi:cy="28"
         sodipodi:rx="2"
         sodipodi:ry="2" /><circle
         cx="30"
         cy="28"
         r="2"
         id="circle5701"
         sodipodi:cx="30"
         sodipodi:cy="28"
         sodipodi:rx="2"
         sodipodi:ry="2" /><circle
         cx="37"
         cy="28"
         r="2"
         id="circle5703"
         sodipodi:cx="37"
         sodipodi:cy="28"
         sodipodi:rx="2"
         sodipodi:ry="2" /></g></g></svg>